<?xml version="1.0" encoding="UTF-8" standalone="no"?>
<svg
   xmlns:dc="http://purl.org/dc/elements/1.1/"
   xmlns:cc="http://creativecommons.org/ns#"
   xmlns:rdf="http://www.w3.org/1999/02/22-rdf-syntax-ns#"
   xmlns:svg="http://www.w3.org/2000/svg"
   xmlns="http://www.w3.org/2000/svg"
   xmlns:sodipodi="http://sodipodi.sourceforge.net/DTD/sodipodi-0.dtd"
   xmlns:inkscape="http://www.inkscape.org/namespaces/inkscape"
   viewBox="0 0 514.59491 122.876"
   height="122.876"
   width="514.59491"
   xml:space="preserve"
   id="svg2"
   version="1.1"
   sodipodi:docname="hdblogo2.svg"
   inkscape:version="1.0.2 (e86c870879, 2021-01-15)"><sodipodi:namedview
     pagecolor="#ffffff"
     bordercolor="#666666"
     borderopacity="1"
     objecttolerance="10"
     gridtolerance="10"
     guidetolerance="10"
     inkscape:pageopacity="0"
     inkscape:pageshadow="2"
     inkscape:window-width="2032"
     inkscape:window-height="1020"
     id="namedview15"
     showgrid="false"
     inkscape:zoom="2.2946429"
     inkscape:cx="354.13565"
     inkscape:cy="67.809328"
     inkscape:window-x="1145"
     inkscape:window-y="61"
     inkscape:window-maximized="0"
     inkscape:current-layer="g10"
     fit-margin-top="0"
     fit-margin-left="0"
     fit-margin-right="0"
     fit-margin-bottom="0" /><metadata
     id="metadata8"><rdf:RDF><cc:Work
         rdf:about=""><dc:format>image/svg+xml</dc:format><dc:type
           rdf:resource="http://purl.org/dc/dcmitype/StillImage" /><dc:title></dc:title></cc:Work></rdf:RDF></metadata><defs
     id="defs6"><linearGradient
       id="linearGradient30"
       spreadMethod="pad"
       gradientTransform="matrix(131.83723,-228.34879,-228.34879,-131.83723,130.364,223.71028)"
       gradientUnits="userSpaceOnUse"
       y2="0"
       x2="1"
       y1="0"
       x1="0"><stop
         id="stop26"
         offset="0"
         style="stop-opacity:1;stop-color:#14e8d5" /><stop
         id="stop28"
         offset="1"
         style="stop-opacity:1;stop-color:#597ee8" /></linearGradient></defs><g
     transform="matrix(1.3333333,0,0,-1.3333333,-15.638666,207.80933)"
     id="g10"><g
       id="g14"
       style="fill:#000000;fill-opacity:1"><g
         id="g16"
         style="fill:#000000;fill-opacity:1"><g
           id="g22"
           style="fill:#000000;fill-opacity:1"><g
             id="g24"
             style="fill:#000000;fill-opacity:1"><path
               id="path32"
               style="fill:#000000;fill-opacity:1;stroke:none"
               d="m 76.703,155.857 c -0.837,0 -1.517,-0.679 -1.517,-1.517 v 0 -36.462 c 0,-0.838 0.68,-1.517 1.517,-1.517 v 0 h 1.705 c 0.838,0 1.517,0.679 1.517,1.517 v 0 31.59 c 0,0.839 0.68,1.519 1.518,1.519 v 0 h 1.442 c 0.838,0 1.517,-0.68 1.517,-1.519 v 0 -84.25 c 0,-0.838 0.679,-1.518 1.517,-1.518 v 0 h 1.574 c 0.838,0 1.516,0.68 1.516,1.518 v 0 89.122 c 0,0.838 -0.678,1.517 -1.516,1.517 v 0 z m -9.479,0 c -0.838,0 -1.518,-0.679 -1.518,-1.517 v 0 -31.458 c 0,-0.838 -0.678,-1.518 -1.516,-1.518 v 0 H 27.07 c -0.838,0 -1.517,0.68 -1.517,1.518 v 0 22.769 c 0,0.837 -0.679,1.517 -1.517,1.517 v 0 H 22.33 c -0.838,0 -1.517,-0.68 -1.517,-1.517 v 0 -27.378 c 0,-0.837 0.679,-1.516 1.517,-1.516 v 0 h 46.468 c 0.838,0 1.517,0.679 1.517,1.516 v 0 36.067 c 0,0.838 -0.679,1.517 -1.517,1.517 v 0 z m -53.978,0 c -0.838,0 -1.517,-0.679 -1.517,-1.517 v 0 -89.122 c 0,-0.838 0.679,-1.518 1.517,-1.518 v 0 H 33.12 c 0.838,0 1.517,0.68 1.517,1.518 v 0 27.245 c 0,0.838 -0.679,1.518 -1.517,1.518 v 0 h -1.837 c -0.838,0 -1.517,-0.68 -1.517,-1.518 v 0 -22.374 c 0,-0.838 -0.679,-1.518 -1.517,-1.518 v 0 H 17.986 c -0.838,0 -1.518,0.68 -1.518,1.518 v 0 79.379 c 0,0.839 0.68,1.519 1.518,1.519 v 0 h 10.263 c 0.838,0 1.517,-0.68 1.517,-1.519 v 0 -22.506 c 0,-0.838 0.679,-1.516 1.517,-1.516 v 0 h 1.837 c 0.838,0 1.517,0.678 1.517,1.516 v 0 27.378 c 0,0.838 -0.679,1.517 -1.517,1.517 v 0 z m 86.625,-0.132 c -0.838,0 -1.517,-0.678 -1.517,-1.517 v 0 -1.709 c 0,-0.836 0.677,-1.515 1.512,-1.518 v 0 l 37.062,-0.127 c 12.243,0 24.356,-8.293 31.201,-21.196 v 0 c 3.292,-6.451 5.003,-13.165 5.003,-19.879 v 0 c 0,-14.219 -6.714,-27.121 -18.694,-35.021 v 0 c -5.925,-4.08 -11.848,-6.055 -17.51,-6.055 v 0 h -32.317 c -0.838,0 -1.518,0.68 -1.518,1.518 v 0 70.816 c 0,0.841 0.683,1.52 1.524,1.518 v 0 l 31.258,-0.126 c 9.611,0 18.957,-6.319 24.356,-16.72 v 0 c 2.633,-5.135 3.949,-10.532 3.949,-15.93 v 0 c 0,-8.031 -3.423,-16.325 -9.61,-22.776 v 0 c -5.793,-5.793 -12.771,-9.48 -18.564,-9.48 v 0 h -13.487 c -0.84,0 -1.519,0.683 -1.518,1.522 v 0 l 0.125,48.96 c 10e-4,0.84 -0.678,1.521 -1.518,1.521 v 0 h -1.572 c -0.837,0 -1.516,-0.677 -1.517,-1.514 v 0 L 116.39,75.154 v -0.852 c 0,-0.838 0.679,-1.518 1.517,-1.518 v 0 h 18.099 c 7.242,0 15.667,4.081 22.119,10.927 v 0 c 6.977,7.505 10.794,16.721 10.794,26.068 v 0 c 0,9.479 -3.686,18.958 -10.4,26.331 v 0 c -7.242,7.24 -15.14,11.189 -22.644,11.189 v 0 H 99.871 c -0.838,0 -1.517,-0.678 -1.517,-1.517 v 0 -80.432 c 0,-0.838 0.679,-1.518 1.517,-1.518 v 0 h 37.057 c 9.479,0 19.748,4.871 27.515,13.165 v 0 c 8.558,8.822 13.298,20.538 13.298,32.782 v 0 c 0,12.244 -4.477,23.83 -12.902,32.782 v 0 c -7.9,8.293 -18.036,13.164 -27.911,13.164 v 0 z m 85.009,-0.394 c -1.036,0 -1.876,-0.84 -1.876,-1.876 v 0 -87.748 c 0,-1.035 0.84,-1.875 1.876,-1.875 v 0 h 36.83 c 19.089,0 30.676,10.532 30.676,28.437 v 0 c 0,6.38 -1.488,11.731 -4.566,16.159 v 0 c -0.41,0.587 -0.438,1.345 -0.075,1.961 v 0 c 2.62,4.435 3.982,9.874 3.982,16.11 v 0 c 0,18.3 -10.795,28.701 -29.359,28.701 v 0 h -28.536 c -1.036,0 -1.876,-0.841 -1.876,-1.876 v 0 -35.878 c 0,-1.035 0.84,-1.874 1.876,-1.874 v 0 l 33.525,0.129 c 2.038,0.647 4.171,2.657 4.624,3.51 v 0 c 2.478,4.652 2.825,12.066 -1.846,16.504 v 0 c -1.711,1.579 -4.607,2.501 -7.239,2.501 v 0 h -20.112 c -1.035,0 -1.875,-0.84 -1.875,-1.876 v 0 -10.073 c 0,-1.035 0.84,-1.874 1.875,-1.874 v 0 h 0.989 c 1.036,0 1.875,0.839 1.875,1.874 v 0 5.466 c 0,1.036 0.84,1.876 1.876,1.876 v 0 h 15.372 c 3.817,0 6.45,-2.502 6.45,-7.11 v 0 c 0,-4.081 -2.106,-6.188 -6.45,-6.188 v 0 h -24.457 c -1.035,0 -1.875,0.84 -1.875,1.876 v 0 26.398 c 0,1.035 0.84,1.875 1.875,1.875 v 0 h 23.271 c 16.326,0 25.409,-8.295 25.409,-23.961 v 0 c 0,-5.107 -1.042,-9.563 -3.255,-13.625 v 0 c -0.024,-0.045 -0.05,-0.09 -0.078,-0.134 v 0 l -1.184,-1.893 c -0.06,-0.098 -0.131,-0.187 -0.213,-0.268 v 0 c -0.733,-0.733 -0.733,-1.921 0,-2.653 v 0 l 0.345,-0.346 c 0.027,-0.025 0.052,-0.053 0.076,-0.081 v 0 l 2.466,-2.854 c 1.58,-1.975 2.37,-6.057 2.37,-12.376 v 0 c 0,-15.404 -9.215,-23.698 -25.936,-23.698 v 0 h -32.091 c -1.036,0 -1.875,0.84 -1.875,1.876 v 0 83.008 c 0,1.036 -0.84,1.876 -1.876,1.876 v 0 z m 18.036,-8.69 c -1.035,0 -1.876,-0.839 -1.876,-1.875 v 0 -0.988 c 0,-1.036 0.841,-1.876 1.876,-1.876 v 0 h 21.954 c 4.345,0 9.084,-2.765 11.717,-7.241 v 0 c 1.185,-2.239 1.844,-4.739 1.844,-7.372 v 0 c 0,-9.084 -5.531,-15.535 -13.957,-15.535 v 0 h -30.51 c -1.036,0 -1.875,-0.84 -1.875,-1.876 v 0 -0.989 c 0,-1.035 0.839,-1.875 1.875,-1.875 v 0 h 30.51 c 8.822,0 14.483,-6.056 14.483,-15.667 v 0 c 0,-5.398 -2.238,-9.347 -6.846,-12.112 v 0 c -2.238,-1.316 -4.608,-1.975 -7.241,-1.975 v 0 h -26.431 c -1.035,0 -1.875,0.84 -1.875,1.876 v 0 17.051 c 0,1.035 0.84,1.874 1.875,1.874 v 0 h 24.457 c 4.607,0 6.845,-2.106 6.845,-6.187 v 0 c 0,-4.213 -2.238,-6.319 -6.845,-6.319 v 0 h -15.372 c -1.036,0 -1.876,0.84 -1.876,1.875 v 0 4.939 c 0,1.036 -0.839,1.875 -1.875,1.875 v 0 h -0.989 c -1.035,0 -1.875,-0.839 -1.875,-1.875 v 0 -9.679 c 0,-1.035 0.84,-1.874 1.875,-1.874 v 0 h 20.112 c 5.133,0 8.557,1.842 10.4,5.661 v 0 c 0.789,1.447 1.185,3.291 1.185,5.397 v 0 c 0,6.846 -4.608,11.059 -11.585,11.059 v 0 h -29.064 c -1.036,0 -1.876,-0.841 -1.876,-1.876 v 0 -26.793 c 0,-1.035 0.84,-1.874 1.876,-1.874 v 0 h 31.038 c 4.574,0 8.891,1.686 12.948,5.191 v 0 c 0.055,0.049 0.111,0.102 0.164,0.155 v 0 c 3.767,3.802 5.715,8.382 5.715,13.611 v 0 c 0,6.541 -2.081,11.653 -6.371,15.463 v 0 c -0.054,0.049 -0.111,0.095 -0.17,0.137 v 0 l -1.155,0.844 c -1.004,0.734 -1.035,2.232 -0.047,2.986 v 0 c 4.635,3.528 7.347,9.267 7.347,16.512 v 0 c 0,7.372 -3.291,13.691 -8.82,16.983 v 0 c -2.765,1.579 -6.057,2.369 -9.611,2.369 v 0 z m -94.228,-8.682 c -0.836,-0.004 -1.512,-0.684 -1.511,-1.52 v 0 l 0.126,-62.405 c 0.001,-0.836 0.681,-1.514 1.517,-1.514 v 0 h 1.708 c 0.838,0 1.518,0.681 1.518,1.518 v 0 57.798 c 0,0.835 0.674,1.512 1.508,1.517 v 0 l 21.926,0.123 c 5.924,0 13.561,-5.266 17.246,-12.243 v 0 c 1.844,-3.555 2.764,-7.241 2.764,-11.323 v 0 c 0,-5.398 -2.5,-11.453 -6.581,-16.062 v 0 c -4.081,-4.607 -9.084,-7.371 -13.429,-7.371 v 0 h -7.83 c -0.838,0 -1.518,-0.68 -1.518,-1.518 v 0 -1.705 c 0,-0.838 0.68,-1.518 1.518,-1.518 v 0 h 7.83 c 7.241,0 16.456,6.188 21.196,15.009 v 0 c 2.369,4.345 3.555,8.821 3.555,13.165 v 0 c 0,9.348 -4.871,19.09 -12.639,24.356 v 0 c -3.818,2.502 -7.899,3.818 -12.112,3.818 v 0 z m 184.659,-3.811 c -0.838,0 -1.517,-0.68 -1.517,-1.518 v 0 -7.317 c 0,-0.838 0.679,-1.517 1.517,-1.517 v 0 h 39.876 c 0.838,0 1.518,0.679 1.518,1.517 v 0 0.583 c 0,0.839 -0.68,1.518 -1.518,1.518 v 0 h -36.258 c -0.838,0 -1.517,0.679 -1.517,1.517 v 0 0.08 c 0,0.839 0.679,1.519 1.517,1.519 v 0 h 39.676 c 0.837,0 1.517,-0.68 1.517,-1.519 v 0 -6.511 c 0,-0.838 -0.68,-1.518 -1.517,-1.518 v 0 h -20.985 c -0.838,0 -1.516,-0.679 -1.516,-1.517 v 0 -47.614 c 0,-0.838 0.678,-1.518 1.516,-1.518 v 0 h 0.584 c 0.838,0 1.518,0.68 1.518,1.518 v 0 43.996 c 0,0.838 0.678,1.518 1.516,1.518 v 0 h 20.984 c 0.838,0 1.519,0.678 1.519,1.516 v 0 13.749 c 0,0.838 -0.681,1.518 -1.519,1.518 v 0 z m 72.349,-1.106 c -5.929,-1.609 -10.352,-5.227 -13.265,-10.954 v 0 l -0.302,-0.704 c -1.206,-2.914 -1.809,-5.829 -1.809,-8.743 v 0 c 0,-3.116 0.603,-5.828 1.809,-8.241 v 0 c 3.115,-6.23 9.145,-10.652 18.189,-13.365 v 0 l 1.207,-0.402 c 4.12,-1.307 6.532,-2.714 7.436,-4.321 v 0 l 0.1,-0.202 c 0.202,-0.301 0.302,-0.703 0.302,-1.206 v 0 c 0,-0.904 -0.1,-1.506 -0.402,-2.009 v 0 c -0.704,-1.608 -2.412,-2.413 -5.125,-2.413 v 0 c -4.321,0 -10.552,2.212 -15.376,5.327 v 0 l -0.225,0.135 c -0.711,0.426 -1.633,0.203 -2.071,-0.503 v 0 L 348.92,73.752 c -0.446,-0.72 -0.217,-1.665 0.51,-2.1 v 0 l 0.188,-0.113 c 7.134,-4.824 16.58,-7.839 24.218,-7.839 v 0 c 2.512,0 4.824,0.302 6.934,0.905 v 0 c 5.929,1.709 10.351,5.326 13.265,11.054 v 0 l 0.403,0.703 c 1.206,3.115 1.808,6.03 1.808,8.744 v 0 c 0,2.291 -0.79,5.276 -2.275,9.049 v 0 c -0.024,0.062 -0.052,0.124 -0.082,0.184 v 0 c -2.732,5.383 -8.545,9.474 -17.34,12.272 v 0 l -1.407,0.403 c -2.713,0.904 -4.623,1.708 -5.627,2.511 v 0 c -0.861,0.705 -1.539,1.288 -1.94,1.748 v 0 c -0.177,0.204 -0.288,0.449 -0.335,0.715 v 0 l -0.107,0.582 c -0.02,0.114 -0.031,0.233 -0.028,0.349 v 0 c 0.054,2.017 1.036,3.455 2.208,3.943 v 0 c 0.604,0.301 1.709,0.402 3.317,0.402 v 0 c 4.322,0 10.551,-2.212 15.376,-5.326 v 0 l 0.231,-0.14 c 0.708,-0.425 1.626,-0.205 2.066,0.494 v 0 l 3.789,6.035 c 0.461,0.734 0.214,1.704 -0.541,2.13 v 0 l -0.219,0.123 c -6.13,4.02 -14.472,6.834 -20.602,6.834 v 0 c -2.712,0 -4.421,-0.201 -5.326,-0.704 v 0 c -4.12,-1.205 -7.235,-3.819 -9.245,-7.737 v 0 c -0.905,-1.709 -1.306,-3.719 -1.306,-6.232 v 0 c 0,-1.909 0.401,-3.718 1.206,-5.426 v 0 c 2.11,-4.522 6.832,-7.838 14.169,-10.049 v 0 l 1.265,-0.39 c 0.028,-0.009 0.054,-0.018 0.08,-0.027 v 0 l 2.675,-0.991 c 1.406,-0.502 3.015,-1.306 4.924,-2.412 v 0 c 3.215,-1.909 4.824,-4.621 4.824,-8.24 v 0 c 0,-2.01 -0.503,-3.919 -1.407,-5.628 v 0 C 382.478,75.86 378.86,73.95 373.836,73.95 v 0 c -3.103,0 -7.523,1.143 -13.264,3.347 v 0 c -0.696,0.269 -1.486,0 -1.862,-0.644 v 0 l -1.054,-1.797 -0.1,-0.202 c 5.728,-2.914 11.155,-4.321 16.38,-4.321 v 0 c 5.929,0 10.954,2.412 13.668,7.035 v 0 c 1.306,2.311 2.01,4.924 2.01,7.939 v 0 c 0,5.929 -3.015,9.647 -7.035,11.757 v 0 c -2.11,1.106 -4.724,2.211 -8.04,3.317 v 0 l -1.305,0.401 c -6.333,1.911 -10.251,4.523 -11.859,8.041 v 0 c -0.604,1.206 -0.905,2.512 -0.905,4.019 v 0 c 0,1.91 0.301,3.416 1.006,4.723 v 0 c 1.579,2.866 3.841,4.759 6.782,5.683 v 0 c 0.099,0.03 0.203,0.052 0.306,0.065 v 0 l 3.75,0.469 c 0.075,0.009 0.152,0.014 0.229,0.013 v 0 c 4.886,-0.023 10.196,-1.565 15.927,-4.548 v 0 c 0.784,-0.408 1.037,-1.413 0.561,-2.158 v 0 c -0.414,-0.646 -1.245,-0.874 -1.938,-0.546 v 0 c -5.968,2.825 -10.784,4.238 -14.363,4.238 v 0 c -1.908,0 -3.015,-0.1 -3.517,-0.402 v 0 c -2.211,-0.602 -3.818,-1.909 -4.924,-4.02 v 0 l -0.1,-0.2 c -0.504,-0.905 -0.703,-2.111 -0.703,-3.618 v 0 c 0,-1.106 0.199,-1.91 0.501,-2.412 v 0 c 1.307,-2.714 4.724,-4.923 10.151,-6.533 v 0 l 1.305,-0.402 2.454,-0.785 c 0.039,-0.012 0.07,-0.023 0.107,-0.038 v 0 c 0.549,-0.224 2.118,-0.913 4.711,-2.161 v 0 c 0.042,-0.019 0.086,-0.042 0.126,-0.064 v 0 c 3.886,-2.206 6.68,-5.008 8.28,-8.307 v 0 c 1.005,-2.01 1.507,-4.22 1.507,-6.633 v 0 c 0,-2.914 -0.502,-5.426 -1.608,-7.537 v 0 l -0.2,-0.402 c -2.292,-4.482 -5.865,-7.583 -10.821,-9.104 v 0 c -0.088,-0.028 -0.185,-0.047 -0.277,-0.061 v 0 c -3.626,-0.49 -5.588,-0.784 -5.886,-0.784 v 0 c -4.912,0 -11.521,1.9 -17.838,4.8 v 0 c -0.034,0.016 -0.066,0.032 -0.098,0.05 v 0 l -1.344,0.719 c -0.771,0.414 -1.034,1.391 -0.575,2.135 v 0 l 3.428,5.553 c 0.421,0.682 1.301,0.919 2.008,0.54 v 0 l 1.499,-0.803 c 0.037,-0.02 0.076,-0.039 0.115,-0.056 v 0 c 4.9,-2.194 9.2,-3.29 12.805,-3.29 v 0 c 1.809,0 2.914,0.1 3.417,0.402 v 0 c 2.311,0.603 3.919,1.909 4.924,3.919 v 0 l 0.101,0.2 c 0.502,0.905 0.703,2.011 0.703,3.417 v 0 c 0,0.704 -0.201,1.508 -0.603,2.513 v 0 l -0.201,0.401 c -1.307,2.714 -4.221,4.523 -9.547,6.232 v 0 l -1.005,0.301 -0.302,0.1 c -8.14,2.412 -13.365,6.23 -15.878,11.558 v 0 c -1.004,2.01 -1.506,4.22 -1.506,6.632 v 0 c 0,2.512 0.502,4.924 1.506,7.437 v 0 l 0.202,0.401 c 2.289,4.482 5.863,7.582 10.818,9.105 v 0 c 0.089,0.028 0.186,0.048 0.278,0.06 v 0 c 3.626,0.491 5.588,0.785 5.887,0.785 v 0 c 6.503,0 14.005,-2.548 22.424,-7.557 v 0 c 0.717,-0.427 1.644,-0.21 2.08,0.501 v 0 l 0.317,0.518 c 0.443,0.722 0.209,1.676 -0.521,2.104 v 0 c -9.191,5.397 -17.198,8.052 -24.2,8.052 v 0 c -3.114,0 -5.427,-0.302 -7.034,-1.005 m -83.406,1.005 c -0.838,0 -1.517,-0.68 -1.517,-1.518 v 0 -63.693 c 0,-0.838 -0.679,-1.518 -1.517,-1.518 v 0 h -7.117 c -0.838,0 -1.516,0.68 -1.516,1.518 v 0 60.075 c 0,0.838 0.678,1.518 1.516,1.518 v 0 h 0.283 c 0.838,0 1.517,-0.68 1.517,-1.518 v 0 -56.96 c 0,-0.838 0.679,-1.517 1.517,-1.517 v 0 h 0.584 c 0.838,0 1.517,0.679 1.517,1.517 v 0 60.578 c 0,0.838 -0.679,1.518 -1.517,1.518 v 0 h -7.518 c -0.838,0 -1.516,-0.68 -1.516,-1.518 v 0 -67.311 c 0,-0.838 0.678,-1.518 1.516,-1.518 v 0 h 14.351 c 0.838,0 1.518,0.68 1.518,1.518 v 0 67.311 c 0,0.838 -0.68,1.518 -1.518,1.518 v 0 z m 11.057,-13.065 c -0.838,0 -1.517,-0.679 -1.517,-1.517 v 0 -0.584 c 0,-0.838 0.679,-1.516 1.517,-1.516 v 0 h 12.542 c 0.838,0 1.519,-0.68 1.519,-1.518 v 0 -50.629 c 0,-0.838 0.678,-1.518 1.516,-1.518 v 0 h 14.25 c 0.838,0 1.517,0.68 1.517,1.518 v 0 47.513 c 0,0.839 -0.679,1.518 -1.517,1.518 v 0 h -0.583 c -0.838,0 -1.517,-0.679 -1.517,-1.518 v 0 -43.795 c 0,-0.838 -0.679,-1.517 -1.517,-1.517 v 0 h -7.016 c -0.838,0 -1.516,0.679 -1.516,1.517 v 0 50.529 c 0,0.838 -0.681,1.517 -1.519,1.517 v 0 z M 22.199,112.017 c -0.838,0 -1.518,-0.68 -1.518,-1.518 v 0 -1.573 c 0,-0.838 0.68,-1.516 1.518,-1.516 v 0 h 51.47 c 0.838,0 1.517,-0.68 1.517,-1.519 v 0 -35.802 c 0,-0.838 -0.679,-1.518 -1.517,-1.518 v 0 h -1.837 c -0.838,0 -1.517,0.68 -1.517,1.518 v 0 31.458 c 0,0.838 -0.679,1.517 -1.517,1.517 v 0 H 22.199 c -0.838,0 -1.518,-0.679 -1.518,-1.517 v 0 -28.298 c 0,-0.838 0.68,-1.517 1.518,-1.517 v 0 h 1.837 c 0.838,0 1.517,0.679 1.517,1.517 v 0 23.427 c 0,0.838 0.679,1.518 1.517,1.518 v 0 h 37.12 c 0.838,0 1.516,-0.68 1.516,-1.518 v 0 -31.458 c 0,-0.838 0.68,-1.518 1.518,-1.518 v 0 h 11.184 c 0.838,0 1.517,0.68 1.517,1.518 v 0 45.281 c 0,0.838 -0.679,1.518 -1.517,1.518 v 0 z" /></g></g></g></g></g></svg>
