<?xml version="1.0" encoding="utf-8"?>
<!-- Svg Vector Icons : http://www.onlinewebfonts.com/icon -->
<!DOCTYPE svg PUBLIC "-//W3C//DTD SVG 1.1//EN" "http://www.w3.org/Graphics/SVG/1.1/DTD/svg11.dtd">
<svg version="1.1" xmlns="http://www.w3.org/2000/svg" xmlns:xlink="http://www.w3.org/1999/xlink" x="0px" y="0px" viewBox="0 0 1000 1000" enable-background="new 0 0 1000 1000" xml:space="preserve">
<metadata> Svg Vector Icons : http://www.onlinewebfonts.com/icon </metadata>
<g><path d="M908,167.9H92c-45.2,0-82,36.8-82,82.1v500.2c0,45.3,36.8,82,82,82h816c45.4,0,82-36.7,82-82V249.9C990,204.6,953.4,167.9,908,167.9L908,167.9z M888.4,226.6L563,515.1c-28.4,25.3-49.4,37.9-63,37.9c-13.5,0-34.6-12.6-63-37.9L111.6,226.6H888.4L888.4,226.6z M71,731.9v-452l254.1,222.9L71,731.9L71,731.9z M113.7,773.4l255.1-226.5l41.8,36.7c24.3,21.2,54.2,32.1,89.4,32.1c35.4,0,65.1-10.9,89.5-32.1l41.8-36.7l255.1,226.5H113.7L113.7,773.4z M929.1,731.9L674.9,502.8l254.2-222.9V731.9L929.1,731.9z"/></g>
</svg>