<?xml version="1.0" encoding="utf-8"?>
<!-- Svg Vector Icons : http://www.onlinewebfonts.com/icon -->
<!DOCTYPE svg PUBLIC "-//W3C//DTD SVG 1.1//EN" "http://www.w3.org/Graphics/SVG/1.1/DTD/svg11.dtd">
<svg version="1.1" xmlns="http://www.w3.org/2000/svg" xmlns:xlink="http://www.w3.org/1999/xlink" x="0px" y="0px" viewBox="0 0 1000 1000" enable-background="new 0 0 1000 1000" xml:space="preserve">
<metadata> Svg Vector Icons : http://www.onlinewebfonts.com/icon </metadata>
<g><path d="M150,710H80c-38.7,0-70,31.3-70,70c0,38.7,31.3,70,70,70h70c38.7,0,70-31.3,70-70S188.7,710,150,710z M150,430H80c-38.7,0-70,31.3-70,70c0,38.7,31.3,70,70,70h70c38.7,0,70-31.3,70-70C220,461.3,188.7,430,150,430L150,430z M150,150H80c-38.7,0-70,31.3-70,70c0,38.7,31.3,70,70,70h70c38.7,0,70-31.3,70-70C220,181.4,188.7,150,150,150z M430,290h490c38.7,0,70-31.3,70-70c0-38.7-31.3-70-70-70H430c-38.7,0-70,31.3-70,70S391.3,290,430,290z M920,430H430c-38.7,0-70,31.3-70,70c0,38.7,31.3,70,70,70h490c38.7,0,70-31.3,70-70C990,461.3,958.7,430,920,430L920,430z M920,710H430c-38.7,0-70,31.3-70,70c0,38.7,31.3,70,70,70h490c38.7,0,70-31.3,70-70S958.7,710,920,710z"/></g>
</svg>