<?xml version="1.0" encoding="utf-8"?>
<!-- Svg Vector Icons : http://www.onlinewebfonts.com/icon -->
<!DOCTYPE svg PUBLIC "-//W3C//DTD SVG 1.1//EN" "http://www.w3.org/Graphics/SVG/1.1/DTD/svg11.dtd">
<svg version="1.1" xmlns="http://www.w3.org/2000/svg" xmlns:xlink="http://www.w3.org/1999/xlink" x="0px" y="0px" viewBox="0 0 1000 1000" enable-background="new 0 0 1000 1000" xml:space="preserve">
<metadata> Svg Vector Icons : http://www.onlinewebfonts.com/icon </metadata>
<g><path d="M500,6.4c-42.2,0-76.5,34.2-76.5,76.5v382.4c0,42.2,34.2,76.5,76.5,76.5c42.2,0,76.5-34.2,76.5-76.5V82.9C576.5,40.7,542.2,6.4,500,6.4L500,6.4z"/><path d="M500,993.6c-270.2,0-490-219.8-490-490c0-151,68.1-291.3,186.7-384.9c24.9-19.6,61-15.4,80.6,9.5c19.6,24.9,15.4,61-9.5,80.6c-90.9,71.7-143,179.2-143,294.8c0,206.9,168.3,375.3,375.3,375.3c206.9,0,375.2-168.4,375.2-375.3c0-115.7-52.2-223.2-143.2-294.9c-24.9-19.6-29.1-55.7-9.5-80.6c19.6-24.9,55.7-29.1,80.5-9.5c118.8,93.6,186.9,234,186.9,385C990,773.8,770.2,993.6,500,993.6L500,993.6z"/></g>
</svg>