<?xml version="1.0" encoding="utf-8"?>
<!-- Svg Vector Icons : http://www.onlinewebfonts.com/icon -->
<!DOCTYPE svg PUBLIC "-//W3C//DTD SVG 1.1//EN" "http://www.w3.org/Graphics/SVG/1.1/DTD/svg11.dtd">
<svg version="1.1" xmlns="http://www.w3.org/2000/svg" xmlns:xlink="http://www.w3.org/1999/xlink" x="0px" y="0px" viewBox="0 0 1000 1000" enable-background="new 0 0 1000 1000" xml:space="preserve">
<metadata> Svg Vector Icons : http://www.onlinewebfonts.com/icon </metadata>
<g><path d="M500,867.2c-111.5,0-222.9,0-334.4,0c-23.2,0-46.4,0.4-69.6-0.2c-41.6-1-75.2-29-84-69.7c-1.3-5.9-1.9-12-1.9-18C10,593.1,10,406.9,10,220.7c0-48.7,39.1-88,87.7-88c268.2-0.1,536.3-0.1,804.5,0c48.6,0,87.7,39.3,87.7,88c0.1,186.2,0.1,372.4,0,558.6c0,47.6-37.2,86-84.7,87.8c-7.9,0.3-15.8,0.2-23.6,0.2c-110.7,0-221.3,0-332,0C533.1,867.2,516.5,867.2,500,867.2z M619.7,806.3c2.5,0,4.7,0,6.9,0c32.7,0,65.4,0,98.1,0c58.6,0,117.1,0,175.7,0c13.6,0,24.1-7.5,27.3-19.6c0.9-3.4,1-7.2,1-10.8c0-183.9,0-367.9,0-551.8c0-2.2,0-4.4-0.2-6.7c-1.1-11.6-10.5-21.6-22.1-23.2c-4-0.5-8.1-0.6-12.1-0.6c-262.9,0-525.8,0-788.7,0c-2.2,0-4.4,0-6.7,0c-17.2,0.7-27.8,11.3-27.8,28.5c0,168.8,0,337.6,0,506.4c0,1.6,0.3,3.2,0.6,6.5c1.5-3.5,2.4-5.3,3.1-7.1c30.4-70.5,81.1-120.1,152.9-147.4c50.9-19.3,103.7-22.9,157.4-15.5c58.2,8,109.6,31,152.4,71.7C585.8,682.7,614.1,738.6,619.7,806.3z M557.5,804.5c0-2.9,0.2-4.3,0-5.7c-0.5-3.6-0.9-7.2-1.7-10.8c-14.1-64-50.6-111-108.6-140.6c-54-27.5-111.7-31.6-169.8-17.8c-77.1,18.3-128.6,66-152.7,142.1c-3.3,10.4-4.6,21.4-6.9,32.4c2.5,0.6,3.4,1,4.4,1c10.5,0.4,20.9,1.1,31.4,1.1c127.8,0.1,255.6,0.1,383.4,0C543.8,806.2,550.5,805.1,557.5,804.5z"/><path d="M194,400.8c0-80.3,64.9-145.1,145.3-145c80.3,0.1,145.5,65.3,145.3,145.2C484.4,481.1,419,546,338.8,545.7C258.7,545.5,194,480.7,194,400.8z M423.3,401c0.1-46.3-37.4-84.1-83.6-84.3c-46.6-0.2-84.7,37.5-84.8,83.8c-0.2,46.2,38.1,84.4,84.4,84.4C385.5,484.8,423.2,447.1,423.3,401z"/><path d="M562.7,315.2c0-20.2,0-39.9,0-60c101.3,0,202.3,0,303.8,0c0,20,0,39.8,0,60C765.3,315.2,664.3,315.2,562.7,315.2z"/><path d="M562.8,437.7c0-20.3,0-40,0-60.1c101.3,0,202.3,0,303.8,0c0,20,0,39.8,0,60.1C765.2,437.7,664.2,437.7,562.8,437.7z"/><path d="M562.8,560.2c0-20.1,0-39.8,0-60c61.2,0,122.5,0,184,0c0,20,0,39.9,0,60C685.3,560.2,624.2,560.2,562.8,560.2z"/></g>
</svg>